<svg xmlns="http://www.w3.org/2000/svg" viewBox="0 0 512 512" width="512" height="512" shape-rendering="geometricPrecision" style="enable-background:new 0 0 512 512;">
  <defs>
    <style>
      .st0{fill:#FCB400;}
      .st1{fill:#18BFFF;}
      .st2{fill:#F82B60;}
      .st3{fill:#BA1E45;}
    </style>
  </defs>
  <path class="st0" d="M228.624,47.248L37.736,126.24c-10.616,4.4-10.504,19.472,0.176,23.704l191.68,76.016c15.792,6.256,33.424,6.256,49.216,0
    l191.68-76.016c10.68-4.232,10.8-19.312,0.176-23.704l-190.88-78.984C265.264,42.864,243.136,42.864,228.624,47.248z"/>
  <path class="st1" d="M273.424,267.544v148.352c0,7.056,7.12,11.888,13.672,9.296l213.68-82.912c2.592-1.008,4.576-2.96,5.568-5.472
    c0.992-2.512,0.992-5.296,0-7.808c0-0.672,0-1.344,0-2.016V184.56c0-7.056-7.12-11.888-13.672-9.296l-213.68,82.912
    C275.184,259.688,273.424,263.36,273.424,267.544z"/>
  <path class="st2" d="M222.928,276.984l-69.872,33.712l-6.328,3.056L12.944,376.24c-8.48,4.096-14.944-2.08-14.944-11.28V187.176
    c0-2.664,1.368-4.968,3.192-6.696c0.672-0.672,1.568-1.344,2.536-1.896c2.496-1.504,6.064-1.9,9.096-0.704l158.92,62.84
    C179.792,243.912,181.104,250.976,222.928,276.984z"/>
  <path class="st3" d="M222.928,276.984l-63.392,30.608L4.096,178.096c0.752-0.752,1.6-1.384,2.528-1.896
    c2.496-1.504,6.064-1.9,9.096-0.704l202.92,80.4C226.784,258.984,227.888,273.968,222.928,276.984z"/>
</svg>